<?xml version="1.0" encoding="UTF-8"?>
<svg width="70px" height="29px" viewBox="0 0 70 29" version="1.1" xmlns="http://www.w3.org/2000/svg" xmlns:xlink="http://www.w3.org/1999/xlink">
    <defs></defs>
    <g id="Symbols" stroke="none" stroke-width="1" fill="none" fill-rule="evenodd">
        <g id="navigation-bar" transform="translate(-20.000000, -30.000000)" fill="#FFFFFF">
            <path d="M33.7383916,36.5632827 C35.5015457,36.5659143 36.9231216,35.1748647 36.9368058,33.4343421 C36.9504899,31.6648722 35.5125983,30.2048753 33.7494442,30.1975069 C31.9915532,30.1901385 30.549451,31.6148723 30.5162932,33.3922369 C30.4836617,35.1401279 31.9273428,36.5606512 33.7383916,36.5632827 L33.7383916,36.5632827 Z M71.6298892,36.5632827 C73.4151485,36.5522301 74.7798824,35.1843383 74.7777772,33.4064474 C74.7761982,31.6069776 73.3635697,30.1854017 71.5883103,30.1975069 C69.8119984,30.2090859 68.3951593,31.6390828 68.3977909,33.4185526 C68.3998961,35.2064435 69.8056826,36.5743353 71.6298892,36.5632827 L71.6298892,36.5632827 Z M68.6725271,57.9553421 L74.93304,57.9553421 L74.93304,38.4853839 L68.6725271,38.4853839 L68.6725271,57.9553421 L68.6725271,57.9553421 Z M30.7836611,57.956921 L37.0415424,57.956921 L37.0415424,38.4811734 L30.7836611,38.4811734 L30.7836611,57.956921 L30.7836611,57.956921 Z M20,57.9800789 L26.5220913,57.9800789 L26.5220913,30.4438222 L20,30.4438222 L20,57.9800789 L20,57.9800789 Z M89.9940603,55.2353479 L89.9940603,53.6553513 C87.673539,53.8632456 86.6614359,53.0279842 86.4866994,50.8753573 C86.469331,50.6611472 86.4566995,50.4453582 86.4566995,50.2300955 C86.4545942,47.8816795 86.4545942,45.5332635 86.4572258,43.1848475 C86.4572258,42.9985321 86.48091,42.8122167 86.5003836,42.5474804 L89.9414289,42.5474804 L89.9414289,38.604331 L86.4345943,38.604331 L86.4345943,32.0211872 L80.0693448,32.0211872 L80.0693448,38.6474888 L76.839878,38.6474888 L76.839878,42.5722172 L80.0925026,42.5722172 C80.0925026,42.8943218 80.0919763,43.1474791 80.0925026,43.4006365 C80.0993447,46.5027351 80.0798711,49.6058863 80.1256604,52.7074586 C80.146713,54.1537713 80.6867119,55.4190317 81.7251307,56.4753453 C83.726179,58.5090251 87.3982764,58.7969192 89.6693242,57.9642894 C89.8219554,57.9079738 89.9698498,57.619027 89.9793235,57.4321853 C90.0145866,56.7011343 89.9940603,55.9679779 89.9940603,55.2353479 L89.9940603,55.2353479 Z M62.1688569,51.1479883 C62.108857,48.347468 62.1846463,45.2595799 62.1856989,42.4574806 C62.1856989,42.4222175 62.2251725,42.3869545 62.2914882,42.2769547 L65.6583231,42.2769547 L65.6583231,38.3380158 L62.1567516,38.3380158 C62.1567516,36.095389 62.1209622,34.2138141 62.1209622,32.0169767 L55.7367654,32.0169767 C55.7367654,34.2385509 55.7725548,38.3453842 55.7725548,38.3453842 L48.9067801,38.3474894 C48.9067801,38.3474894 48.7604646,36.3759147 49.4283579,35.5638112 C50.2073036,34.6164448 51.2604592,34.5601291 52.4083515,34.7269709 C52.4083515,33.3638159 52.4246673,32.0722397 52.3872989,30.7827688 C52.3825621,30.6211902 52.1157206,30.3785592 51.9272999,30.3248751 C50.1757247,29.8317182 48.4257285,29.9264549 46.6925743,30.4306643 C43.9210013,31.2364521 42.5441621,32.9485537 42.3994256,35.7990739 C42.3567941,36.630651 42.3925835,37.4664387 42.3925835,38.370121 L38.9552225,38.370121 L38.9552225,42.3669545 L42.3894256,42.3669545 L42.3894256,57.9463947 L48.8930959,57.9463947 L48.8930959,42.4059018 L55.7920285,42.3522177 L55.7920285,43.1659002 C55.7920285,46.0548413 55.7667653,49.2285187 55.7525549,52.1174599 C55.7441338,53.8011405 56.1715013,55.2964004 57.4109723,56.5179768 C59.4688627,58.5453408 63.0962233,58.7800772 65.3783237,57.9537632 C65.4988497,57.910079 65.6435863,57.7169216 65.6451652,57.5916587 C65.6646388,56.2806088 65.6572704,54.9700853 65.6572704,53.6379829 C65.4604288,53.6600882 65.3325343,53.6737723 65.2046398,53.6885091 C63.4483278,53.8821929 62.2062252,52.9064056 62.1688569,51.1479883 Z" id="logo"></path>
        </g>
    </g>
</svg>
